<?xml version="1.0" standalone="no"?>
<svg version="1.0" xmlns="http://www.w3.org/2000/svg" width="1024" height="1024" viewBox="0 0 21 21">

	<path fill="#aa66cc" d="M5.5,3h-2.5v15h11.5v-1h-10.5v-13h1.5v-1zm1,0h11.5v15h-2.5v-1h1.5v-13h-10.5v-1z" />

    <path fill="#ff4444" d="M5,10v-5h5v5h-1v-4h-1v4h-1v-4h-1v4h-1z" />

    <path fill="#ffbb33" d="M12,8v2h-1v-5h5v5h-1v-2h-3zm0,-1h3v-1h-3v1z" />

    <path fill="#99cc00" d="M5,11h5v3h-4v1h4v1h-5v-3h4v-1h-4v-1z" />

    <path fill="#33b5e5" d="M16,11v1h-4v1h4v1h-4v1h4v1h-5v-5h5z" />

</svg>
